<?xml version="1.0" encoding="UTF-8" standalone="no"?><!DOCTYPE svg PUBLIC "-//W3C//DTD SVG 1.1//EN" "http://www.w3.org/Graphics/SVG/1.1/DTD/svg11.dtd"><svg width="1052px" height="1052px" version="1.1" xmlns="http://www.w3.org/2000/svg" xmlns:xlink="http://www.w3.org/1999/xlink" xml:space="preserve" xmlns:serif="http://www.serif.com/" style="fill-rule:evenodd;clip-rule:evenodd;stroke-linejoin:round;stroke-miterlimit:2;"><g transform="matrix(0.795653,0,0,0.813793,300.232,-87.1524)"><path d="M447.879,246.466C440.865,238.632 432.172,232.036 424.249,225.169C403.134,206.868 381.311,191.677 357.113,177.687C348.129,172.493 339.014,167.859 329.742,163.197C326.191,161.412 320.637,159.084 319.83,154.691C318.658,148.311 328.318,148.428 332.288,148.382C346.061,148.221 359.934,150.627 373.357,153.516C395.979,158.386 417.548,163.71 438.24,174.519C452.142,181.781 464.318,192.823 476.008,203.122C484.047,210.205 492.226,216.799 499.33,224.943C517.285,245.527 534.856,267.303 547.577,291.601C559.73,314.817 567.728,341.677 571.427,367.602C572.039,371.889 571.984,376.255 571.995,380.574C572.003,383.906 572,387.238 571.997,390.57C571.991,399.639 571.865,409.087 568.658,417.712C566.498,423.523 561.308,426.599 555.271,424.712C548.065,422.459 540.249,418.901 534.717,413.675C522.271,401.919 520.008,386.559 516.493,370.818C513.878,359.109 510.409,347.609 506.369,336.312C501.5,322.695 493.952,311.781 486.311,299.617C474.333,280.546 462.778,263.372 447.879,246.466Z" style="fill:rgb(108,111,102);fill-rule:nonzero;"/></g><g transform="matrix(0.795653,0,0,0.813793,300.232,-87.1524)"><path d="M8.646,424.778C-0.058,424.731 0.856,407.06 0.336,401.159C-1.83,376.565 1.677,349.262 6.885,325.198C14.369,290.616 32.951,260.945 56.405,234.791C60.652,230.055 64.237,224.893 68.932,220.552C81.63,208.812 96.532,199.465 111.042,190.282C130.578,177.918 150.451,166.651 172.962,160.651C189.163,156.332 205.606,152.345 221.909,148.394C227.48,147.043 235.804,144.747 240.807,148.685C244.139,151.308 242.905,155.792 239.993,158.102C232.411,164.116 223.725,169.363 215.609,174.649C194.19,188.598 173.027,202.501 152.282,217.425C140.744,225.726 127.32,234.761 118.098,245.743C102.053,264.848 83.865,283.741 71.542,305.633C63.844,319.307 58.855,335.904 54.213,350.855C51.533,359.487 50.176,368.904 50.034,377.941C49.914,385.614 50.923,393.906 47.789,401.128C43.459,411.108 29.214,417.067 19.846,421.125C16.298,422.661 12.547,424.472 8.646,424.778Z" style="fill:rgb(108,111,102);fill-rule:nonzero;"/></g><g transform="matrix(0.785966,0,0,0.816298,295.862,-75.9749)"><path d="M135.727,219.898C167.241,188.408 203.925,163.587 244.259,144.648C262.144,136.251 278.411,127.234 298.927,127.407C306.428,127.47 315.549,131.394 322.211,134.652C335.867,141.332 348.476,149.772 362.091,156.506C372.854,161.828 383.666,167.028 393.757,173.57C397.98,176.307 401.374,180.05 405.557,182.802C410.313,185.932 415.755,187.647 420.324,191.152C428.364,197.32 434.95,205.339 442.238,212.342C449.495,219.313 457.463,225.114 464.301,232.615C478.045,247.691 489.665,265.029 500.307,282.367C501.555,284.4 502.926,287.464 505.049,288.749C507.281,290.099 509.739,289.899 511.213,292.561C513.817,297.264 512.864,303.129 515.071,308.01C516.21,310.528 518.776,312.006 519.922,314.299C522.719,319.895 522.136,325.389 523.826,331.37C526.378,340.405 531.229,350.275 532.133,359.608C532.225,360.557 532.568,364.997 530.233,364.49C528.65,364.146 529.281,362.003 527.299,362.943C526.727,363.215 526.785,365.855 526.755,366.379C526.552,369.921 525.31,373.79 525.502,377.29C525.693,380.758 529.391,382.147 532.118,383.312C538.425,386.006 544.589,388.826 550.725,391.893C553.706,393.384 556.688,394.874 559.669,396.365C564.237,398.649 569.746,400.732 573.322,404.546C583.799,415.72 584.452,435.18 586.264,449.577C587.273,457.585 588.761,470.761 582.531,477.014C577.665,481.898 569.608,482.288 563.191,481.442C545.469,479.106 534.397,466.587 520.313,457.117C515.917,454.161 510.618,453.866 505.864,451.746C469.314,435.447 433.292,419.368 395.112,407.361C387.281,404.898 379.916,401.639 371.898,399.638C361.125,396.95 349.684,396.842 338.695,395.474C320.755,393.242 302.752,390.185 284.598,389.925C250.685,389.439 217.872,398.516 186.026,409.133C155.267,419.386 124.917,431.41 94.897,443.613C89.607,445.763 85.351,449.663 80.548,452.655C72.191,457.858 63.628,462.633 55.426,468.102C46.341,474.159 38.479,480.713 27.023,479.52C18.202,478.601 4.96,474.495 1.239,465.495C-1.118,459.793 1.434,455.128 2.027,449.397C3.703,433.199 7.613,421.058 15.412,406.517C19.945,398.066 30.184,392.863 38.63,389.121C43.259,387.069 49.747,385.544 52.743,381.03C57.929,373.216 56.296,360.471 56.997,351.566C58.011,338.678 61.949,326.422 66.346,314.35C73.947,293.483 84.971,271.088 99.653,254.238C110.675,241.588 123.958,231.657 135.727,219.898M372.123,336.868C373.31,334.814 368.475,332.521 367.348,331.273C365.005,328.677 365.036,324.969 365.939,321.811C368.409,313.165 375.416,306.381 379.119,298.318C384.991,285.531 385.074,264.777 380.168,251.653C374.279,235.903 365.326,227.519 352.054,217.94C346.673,214.056 341.452,209.724 335.169,207.363C325.674,203.795 315.295,202.778 305.304,201.564C299.509,200.859 294.149,197.657 288.37,197.444C278.704,197.088 269.066,199.618 259.977,202.585C243.924,207.827 227.735,214.635 216.247,227.567C193.056,253.674 194.029,298.094 218.32,322.486C221.488,325.667 224.88,331.762 228.963,333.64C231.752,334.923 235.46,334.114 238.357,333.832C244.699,333.216 250.829,331.957 257.233,331.932C277.627,331.851 298.081,335.86 318.498,335.894C331.746,335.917 344.718,337.786 357.881,337.882C361.429,337.908 368.869,339.132 372.123,336.868Z" style="fill:rgb(57,67,32);fill-rule:nonzero;"/></g><g transform="matrix(0.785966,0,0,0.816298,295.862,-75.9749)"><path d="M287.012,121.077C285.047,121.364 283.096,121.593 281.108,121.581C277.087,121.557 273,119.526 274.428,114.874C274.715,113.939 275.287,113.036 275.882,112.27C279.167,108.04 283.91,105.847 289.129,105.132C294.875,104.345 303.118,105.65 307.769,109.295C310.135,111.15 312.573,115.258 309.927,117.891C308.049,119.759 304.808,119.738 302.358,119.839C297.173,120.051 292.153,120.291 287.012,121.077Z" style="fill:rgb(57,67,32);fill-rule:nonzero;"/></g><g transform="matrix(0.796658,0,0,0.796658,273.962,200.126)"><path d="M561.652,238.927C555.565,264.582 548.267,290.837 533.053,312.95C524.296,325.679 512.369,334.756 500.638,344.532C473.526,367.129 442.899,385.46 411.399,401.207C405.05,404.381 397.424,406.682 391.543,410.617C387.551,413.287 385.59,417.651 381.04,419.676C373.423,423.065 365.134,423.025 357.182,424.908C352.938,425.913 349.178,428.293 344.955,429.254C329.076,432.869 311.108,434.827 294.818,433.867C292.736,433.744 289.758,433.676 288.329,431.825C286.144,428.996 287.099,425.963 283.085,424.531C278.439,422.873 272.498,424.134 267.633,423.775C259.204,423.154 250.202,421.486 242.141,418.903C232.03,415.662 223.114,410.207 213.916,405.087C203.532,399.307 193.256,393.701 183.423,386.984C148.583,363.185 113.509,335.416 93.731,296.949C86.687,283.247 82.112,268.056 78.748,253.064C77.272,246.486 76.848,239.386 74.901,232.939C71.948,223.161 61.873,223.436 57.648,215.327C51.887,204.269 61.576,189.891 60.065,178.35C59.612,174.887 57.137,174.249 55.461,171.516C54.015,169.158 54.494,166.272 55.132,163.746C59.891,144.881 78.725,132.831 94.844,124.459C102.089,120.696 108.589,115.571 115.955,112.056C138.908,101.103 163.499,92.141 187.203,82.943C218.537,70.784 252.102,57.741 285.858,54.284C299.783,52.858 313,54.982 326.72,55.815C349.908,57.223 373.234,59.396 395.987,64.6C403.642,66.351 410.768,69.777 418.286,71.96C440.147,78.31 461.532,84.884 482.806,93.122C499.323,99.518 514.261,107.851 529.901,116.026C535.383,118.891 541.853,119.073 547.064,122.722C550.357,125.027 551.999,128.961 555.262,131.395C562.679,136.927 573.211,140.68 577.035,149.893C583.62,165.758 582.058,182.021 580.272,198.62C579.643,204.464 580.691,210.894 578.247,216.402C576.026,221.407 571.05,222.832 567.45,226.481C564.14,229.835 562.727,234.468 561.652,238.927Z" style="fill:rgb(254,200,175);fill-rule:nonzero;"/></g><g transform="matrix(0.796658,0,0,0.796658,273.962,200.126)"><path d="M356.063,470.22C356.063,470.22 358.622,469.867 359.898,469.663C363.025,469.164 366.115,468.459 369.218,467.831C377.642,466.125 386.38,464.814 394.682,462.628C409.598,458.7 422.917,452.118 437.372,447.137C441.102,445.851 449.12,440.818 452.98,442.926C459.039,446.235 457.895,458.359 457.907,464.054C457.935,478.295 460.158,492.207 459.87,506.432C459.737,512.958 459.131,521.174 455.488,526.759C451.793,532.422 445.034,535.833 439.384,539.187C428.894,545.413 418.923,551.255 407.742,556.178C397.565,560.66 387.092,563.39 376.539,566.779C370.205,568.813 364.154,571.828 357.67,573.361C340.018,577.534 322.614,577.952 304.544,577.952C299.084,577.952 293.49,578.215 288.077,577.315C270.519,574.393 255.002,566.69 238.898,559.58C232.798,556.886 226.159,555.549 220.174,552.592C211.608,548.361 204.25,542.256 196.318,537.048C190.664,533.336 183.047,530.832 180.853,523.645C179.278,518.484 179.909,512.554 179.909,507.23C179.909,491.94 181.868,477.052 181.912,461.855C181.929,455.686 181.521,445.374 189.139,443.106C193.708,441.746 201.206,448.727 205.531,450.624C214.756,454.67 224.689,456.336 234.062,459.806C239.398,461.78 243.884,465.457 249.382,467.088C256.142,469.093 263.146,469.502 270.068,470.546C298.925,474.902 327.237,474.523 356.063,470.22Z" style="fill:rgb(254,200,175);fill-rule:nonzero;"/></g><g transform="matrix(0.796658,0,0,0.796658,273.962,200.126)"><path d="M583.909,218.94L583.909,181.46C583.909,169.696 584.699,158.129 595.392,150.72C603.88,144.838 622.542,143.111 629.093,152.46C632.081,156.725 631.893,161.914 631.902,166.899C631.944,188.468 624.551,210.054 612.367,227.842C608.444,233.569 603.206,240.645 597.488,244.62C595.195,246.214 591.338,248.129 588.644,246.322C582.118,241.942 583.909,225.321 583.909,218.94Z" style="fill:rgb(254,200,175);fill-rule:nonzero;"/></g><g transform="matrix(0.796658,0,0,0.796658,273.962,200.126)"><path d="M4.272,156.691C4.272,156.691 6.491,153.548 7.905,152.267C10.495,149.923 13.905,148.478 17.386,148.245C27.829,147.545 39.542,153.087 45.849,161.353C51.147,168.296 49.909,177.767 49.909,185.959C49.909,198.001 51.143,212.018 49.476,224.399C48.761,229.714 48.955,240.992 43.824,244.062C41.494,245.456 38.825,243.46 37.096,242.044C31.784,237.693 26.458,233.574 21.636,228.658C10.363,217.165 4.525,200.286 1.496,184.763C-0.386,175.124 -1.031,165.465 4.272,156.691Z" style="fill:rgb(254,200,175);fill-rule:nonzero;"/></g><g transform="matrix(0.805072,0,0,0.805072,117.614,412.687)"><path d="M547.457,777.234C531.354,780.404 519.928,782.407 503.435,780.827C496.173,780.131 485.463,775.183 478.675,773.014C464.253,768.407 449.88,763.6 435.25,759.705C421.774,756.116 420.768,759.313 407.147,756.058C391.127,752.231 375.74,740.815 360.842,734.769C355.007,732.401 345.339,731.708 339.262,730.636C325.291,728.171 303.55,724.086 289.932,719.968C257.727,710.23 256.432,707.231 224.643,696.347C194.731,686.106 183.748,683.517 152.814,677.154C128.72,672.198 119.665,672.693 96.485,663.891C83.497,658.96 72.278,650.779 59.167,645.991C49.323,642.397 39.509,638.715 29.6,635.304C22.22,632.764 12.634,631.857 8.067,624.327C4.032,617.672 4.735,602.659 3.922,596.048C0.146,565.322 -1.205,535.826 2.194,504.969C5.364,476.189 7.969,445.644 15.8,417.64C21.203,398.318 34.611,378.801 46.315,363.367C50.156,358.302 58.023,352.847 63.031,349.165C75.198,340.221 86.006,331.652 99.699,325.028C116.137,317.076 133.626,311.465 150.211,303.825C156.775,300.801 163.543,298.075 169.621,294.165C173.82,291.464 176.924,287.346 180.772,284.165C188.812,277.52 194.268,273.578 203.966,269.565C209.042,267.464 213.792,267.169 219.136,268.312C225.088,269.585 227.549,272.787 234.01,271.797C241.043,270.72 249.38,265.688 255.927,263.365C270.207,258.297 284.377,252.564 299.213,249.481C308.468,247.558 318.169,249.229 327.435,249.333C340.336,249.477 358.494,246.662 371.07,252.996C376.718,255.84 381.467,260.243 387.023,263.263C401.503,271.134 416.468,278.08 431.115,285.634C438.85,289.624 447.313,295.145 455.707,297.806C460.805,299.422 469.358,299.355 474.583,299.231C511.354,298.36 545.866,293.294 581.47,284.138C590.514,281.812 605.351,277.963 613.974,274.241C621.559,270.967 625.849,267.129 631.212,260.967C637.299,253.974 642.479,243.133 653.09,241.751C661.81,240.615 681.663,239.016 690.823,243.236C695.307,245.302 698.52,252.741 704.15,252.991C711.002,253.294 724.168,251.093 731.007,251.814C735.531,252.291 747.708,257.091 751.943,258.452C773.186,265.277 794.566,271.674 815.765,278.634C857.826,292.443 896.866,307.028 935.364,328.658C941.012,331.831 946.929,334.645 952.082,338.573C962.661,346.635 966.459,354.276 974.849,364.276C983.126,374.142 989.675,379.659 994.643,392.342C1000.05,406.144 1001.5,423.22 1004.94,436.932C1010.68,459.857 1012.85,459.119 1017.7,482.374C1022.55,505.568 1023.62,528.108 1022.46,551.73C1021.03,580.933 1019.42,580.612 1015.97,609.711C1015.2,616.175 1017.36,626.323 1011.93,631.841C1008.41,635.405 1005.66,634.162 1001.34,635.443C994.946,637.336 988.713,639.724 982.376,641.784C948.729,652.721 914.178,659.702 880.243,669.835C855.351,677.269 831.725,688.57 806.835,696.015C771.122,706.698 734.571,713.107 699.321,725.342C661.97,738.305 663.282,741.067 626.19,754.899C616.202,758.624 605.654,760.632 595.433,763.659C577.912,768.849 565.446,773.689 547.457,777.234Z" style="fill:rgb(47,133,90);fill-rule:nonzero;"/></g><path d="M606.06,477.11C605.645,476.757 605.543,476.671 605.543,476.671C605.34,476.5 605.136,476.329 604.931,476.159C604.675,475.947 604.33,475.667 604.003,475.404C603.795,475.237 603.587,475.072 603.379,474.907C603.17,474.742 602.961,474.577 602.752,474.413C602.532,474.24 602.083,473.889 601.809,473.676C601.18,473.186 600.55,472.696 599.92,472.207C599.489,471.872 599.008,471.501 598.657,471.232C598.313,470.968 598.015,470.742 597.704,470.508C597.491,470.348 597.278,470.188 597.064,470.03C596.976,469.965 596.869,469.886 596.743,469.794C596.333,469.491 595.853,469.148 595.449,468.861C595.097,468.612 594.451,468.166 594.136,467.953C593.916,467.804 593.695,467.656 593.474,467.508C593.35,467.426 593.239,467.352 593.142,467.288C592.888,467.12 592.406,466.806 592.139,466.634C591.916,466.49 591.691,466.347 591.467,466.204C591.243,466.062 591.018,465.92 590.792,465.779C590.469,465.576 590.099,465.346 589.776,465.147C589.481,464.966 589.034,464.693 588.754,464.524C588.477,464.357 588.002,464.072 587.727,463.91C587.498,463.774 587.269,463.64 587.039,463.505C586.81,463.371 586.58,463.237 586.349,463.105C586.119,462.972 585.889,462.839 585.658,462.707C585.297,462.501 584.655,462.137 584.269,461.921C584.037,461.79 583.806,461.66 583.573,461.53C583.109,461.271 582.644,461.012 582.179,460.755C581.946,460.626 581.713,460.498 581.48,460.37C581.247,460.242 581.013,460.115 580.779,459.989C580.545,459.862 580.311,459.736 580.077,459.61C579.842,459.485 579.607,459.36 579.372,459.236C579.137,459.111 578.902,458.988 578.665,458.866C578.429,458.744 578.193,458.622 577.956,458.501C577.707,458.374 577.139,458.088 576.887,457.963C576.646,457.843 576.068,457.559 575.813,457.435C575.558,457.311 575.021,457.052 574.735,456.916C574.448,456.779 573.937,456.538 573.653,456.404C573.384,456.278 572.81,456.011 572.568,455.899C572.327,455.787 572.085,455.677 571.843,455.566C571.601,455.455 571.359,455.345 571.117,455.236C570.874,455.127 570.631,455.019 570.388,454.911C570.312,454.877 570.191,454.824 570.023,454.75C569.779,454.643 569.536,454.537 569.291,454.432C569.047,454.327 568.802,454.223 568.557,454.12C568.424,454.063 568.301,454.012 568.189,453.965C567.662,453.747 567.319,453.605 566.712,453.363C566.465,453.264 566.218,453.166 565.97,453.069C565.722,452.973 565.474,452.876 565.226,452.781C564.978,452.685 564.729,452.591 564.481,452.497C564.232,452.402 563.983,452.309 563.733,452.217C563.484,452.125 563.234,452.034 562.984,451.943C562.734,451.852 562.484,451.763 562.233,451.674C562.1,451.626 561.974,451.582 561.857,451.541C561.606,451.453 561.354,451.366 561.103,451.28C560.817,451.182 560.24,450.99 559.968,450.901C559.715,450.819 559.462,450.738 559.208,450.658C559.064,450.612 558.937,450.572 558.828,450.538C558.574,450.459 558.319,450.381 558.065,450.304C557.81,450.227 557.555,450.151 557.3,450.076C557.045,450.001 556.79,449.927 556.534,449.854C556.278,449.781 556.022,449.709 555.766,449.638C555.51,449.567 555.253,449.496 554.997,449.427C554.717,449.351 554.125,449.194 553.84,449.12C553.582,449.053 553.325,448.987 553.067,448.922C552.809,448.857 552.551,448.793 552.293,448.729C552.035,448.665 551.776,448.603 551.517,448.542C551.326,448.497 551.196,448.467 551.129,448.451C550.87,448.391 550.61,448.333 550.351,448.275C550.091,448.217 549.831,448.161 549.571,448.107C549.365,448.064 549.235,448.037 549.18,448.026C548.919,447.975 548.658,447.924 548.397,447.875C548.135,447.826 547.873,447.78 547.611,447.736C547.349,447.691 547.086,447.649 546.823,447.611C546.56,447.57 546.297,447.533 546.033,447.501C545.569,447.441 545.304,447.412 544.844,447.367C544.658,447.349 544.525,447.337 544.447,447.33C544.182,447.31 543.916,447.29 543.651,447.272C543.385,447.258 543.12,447.245 542.854,447.234C542.722,447.229 542.589,447.225 542.455,447.222C542.19,447.216 541.924,447.213 541.658,447.211C541.603,447.211 541.47,447.213 541.259,447.216C540.993,447.217 540.727,447.225 540.461,447.238C540.196,447.248 539.93,447.263 539.665,447.282C539.557,447.29 539.424,447.3 539.267,447.313C539.002,447.334 538.737,447.361 538.473,447.395C538.209,447.424 537.946,447.459 537.683,447.501C537.42,447.54 537.158,447.584 536.896,447.632C536.812,447.648 536.681,447.673 536.504,447.708C536.243,447.758 535.983,447.814 535.725,447.877C535.465,447.935 535.207,447.998 534.949,448.065C534.852,448.09 534.723,448.124 534.564,448.166C534.306,448.234 534.05,448.305 533.794,448.378C533.644,448.42 533.516,448.456 533.41,448.486C533.155,448.559 532.899,448.633 532.643,448.705C532.388,448.779 532.132,448.851 531.875,448.921C531.395,449.054 531.123,449.122 530.717,449.222C530.459,449.286 530.199,449.345 529.939,449.398C529.755,449.437 529.625,449.464 529.548,449.479C529.287,449.528 529.025,449.573 528.762,449.615C528.598,449.641 528.466,449.66 528.368,449.674C528.104,449.707 527.839,449.737 527.575,449.765C527.264,449.794 526.709,449.83 526.381,449.839C526.115,449.846 525.849,449.848 525.583,449.847C525.495,449.846 525.362,449.843 525.184,449.837C524.919,449.828 524.653,449.814 524.388,449.795C524.123,449.772 523.858,449.747 523.594,449.719C523.508,449.709 523.376,449.691 523.198,449.666C522.935,449.63 522.672,449.589 522.41,449.543C522.149,449.495 521.887,449.444 521.627,449.39C521.557,449.375 521.427,449.346 521.238,449.302C521.081,449.266 520.952,449.235 520.85,449.211C520.591,449.148 520.334,449.082 520.077,449.012C519.896,448.964 519.768,448.929 519.692,448.908C519.436,448.836 519.18,448.764 518.924,448.692C518.54,448.581 518.157,448.472 517.773,448.363C517.517,448.292 517.26,448.222 517.003,448.153C516.746,448.085 516.489,448.019 516.23,447.957C516.037,447.91 515.907,447.879 515.842,447.864C515.582,447.807 515.322,447.752 515.062,447.698C514.801,447.647 514.539,447.6 514.277,447.556C514.015,447.511 513.752,447.471 513.488,447.438C513.225,447.4 512.961,447.368 512.696,447.344C512.431,447.316 512.166,447.293 511.901,447.274C511.636,447.256 511.37,447.24 511.105,447.227C510.839,447.217 510.573,447.209 510.307,447.202C510.244,447.201 510.111,447.2 509.908,447.199C509.642,447.196 509.376,447.198 509.11,447.204C508.988,447.206 508.855,447.209 508.712,447.214C508.446,447.221 508.18,447.232 507.915,447.247C507.649,447.259 507.384,447.277 507.119,447.299C506.853,447.318 506.588,447.341 506.324,447.368C506.19,447.381 506.057,447.395 505.927,447.409C505.662,447.437 505.398,447.469 505.135,447.505C504.871,447.537 504.608,447.574 504.345,447.616C504.082,447.655 503.819,447.697 503.557,447.742C503.295,447.787 503.033,447.834 502.772,447.883C502.511,447.933 502.25,447.984 501.989,448.037C501.915,448.052 501.785,448.079 501.599,448.119C501.338,448.174 501.079,448.23 500.819,448.289C500.56,448.348 500.301,448.408 500.042,448.469C499.979,448.484 499.85,448.515 499.654,448.563C499.396,448.626 499.138,448.69 498.88,448.755C498.622,448.821 498.365,448.888 498.108,448.955C498.038,448.973 497.91,449.008 497.722,449.059C497.466,449.128 497.209,449.198 496.953,449.269C496.697,449.341 496.441,449.413 496.185,449.486C495.891,449.571 495.342,449.733 495.037,449.825C494.964,449.846 494.837,449.885 494.655,449.94C494.401,450.018 494.147,450.096 493.893,450.176C493.639,450.255 493.386,450.335 493.132,450.416C492.708,450.552 492.09,450.752 491.615,450.911C491.462,450.962 491.336,451.004 491.237,451.037C490.933,451.139 490.388,451.325 490.104,451.423C489.853,451.51 489.602,451.598 489.351,451.686C489.1,451.774 488.85,451.864 488.6,451.954C488.349,452.045 488.1,452.136 487.85,452.228C487.772,452.257 487.647,452.304 487.476,452.368C487.017,452.54 486.805,452.621 486.359,452.796C486.111,452.892 485.864,452.99 485.617,453.089C485.523,453.127 485.4,453.177 485.247,453.239C485.001,453.339 484.755,453.44 484.51,453.543C484.264,453.646 484.019,453.749 483.775,453.853C483.53,453.958 483.286,454.063 483.042,454.17C482.798,454.276 482.555,454.383 482.312,454.491C482.069,454.599 481.826,454.708 481.584,454.817C481.298,454.946 480.798,455.174 480.495,455.314C480.253,455.425 480.012,455.537 479.771,455.649C479.53,455.762 479.289,455.875 479.049,455.988C478.67,456.167 478.332,456.328 477.968,456.503C477.579,456.69 477.259,456.844 476.891,457.023C476.652,457.139 476.413,457.256 476.174,457.373C475.875,457.52 475.388,457.76 475.101,457.903C474.826,458.039 474.289,458.307 474.03,458.438C473.792,458.557 473.555,458.677 473.318,458.797C473.163,458.875 473.044,458.936 472.962,458.977C472.683,459.119 472.146,459.395 471.897,459.523C471.661,459.645 471.425,459.768 471.189,459.891C470.953,460.014 470.718,460.138 470.483,460.263C470.248,460.388 470.014,460.513 469.779,460.639C469.684,460.69 469.567,460.754 469.429,460.829C469.329,460.883 469.212,460.947 469.078,461.02C468.845,461.147 468.612,461.275 468.379,461.404C468.275,461.463 468.158,461.527 468.031,461.599C467.799,461.728 467.567,461.859 467.336,461.99C467.105,462.122 466.874,462.253 466.643,462.386C466.412,462.518 466.182,462.652 465.952,462.785C465.722,462.919 465.493,463.053 465.263,463.187C464.993,463.346 464.486,463.645 464.232,463.795C463.66,464.134 463.089,464.474 462.518,464.815C462.173,465.021 461.847,465.215 461.491,465.429C461.099,465.664 460.784,465.855 460.466,466.047C460.239,466.185 460.012,466.323 459.785,466.463C459.559,466.602 459.333,466.742 459.107,466.883C458.738,467.114 458.458,467.292 458.098,467.526C457.874,467.67 457.652,467.816 457.431,467.964C457.21,468.112 456.99,468.261 456.771,468.412C456.552,468.563 456.334,468.715 456.117,468.869C455.899,469.022 455.683,469.177 455.468,469.333C455.403,469.38 455.296,469.458 455.146,469.568C454.931,469.725 454.717,469.883 454.503,470.042C454.452,470.08 454.345,470.159 454.184,470.28C453.97,470.439 453.758,470.598 453.545,470.758C452.907,471.237 452.268,471.716 451.63,472.194C451.263,472.47 450.984,472.681 450.675,472.915C450.261,473.229 450.084,473.366 449.726,473.644C449.516,473.807 449.307,473.972 449.099,474.138C448.892,474.305 448.685,474.472 448.479,474.64C448.358,474.74 448.256,474.824 448.172,474.895C447.969,475.066 447.766,475.238 447.564,475.411C447.363,475.585 447.163,475.76 446.964,475.938C446.766,476.114 446.568,476.292 446.372,476.472C446.176,476.651 445.981,476.832 445.786,477.014C445.712,477.084 445.615,477.175 445.496,477.287C445.303,477.47 445.11,477.653 444.918,477.837C444.693,478.054 444.289,478.443 444.058,478.669C443.772,478.948 443.486,479.226 443.201,479.504C443.01,479.689 442.819,479.874 442.628,480.059C442.436,480.244 442.244,480.428 442.051,480.611C441.925,480.731 441.829,480.822 441.762,480.885C441.358,481.266 440.884,481.699 440.584,481.962C440.23,482.274 440.017,482.454 439.672,482.736C439.291,483.047 439.125,483.175 438.725,483.468C438.512,483.627 438.294,483.78 438.072,483.927C437.996,483.977 437.884,484.049 437.737,484.143C437.513,484.287 437.286,484.424 437.054,484.554C436.82,484.682 436.585,484.805 436.347,484.925C436.109,485.044 435.867,485.153 435.619,485.251C435.374,485.353 435.125,485.447 434.873,485.533C434.62,485.614 434.365,485.688 434.107,485.756C433.963,485.793 433.833,485.823 433.719,485.848C433.367,485.922 432.924,485.992 432.537,486.027C432.272,486.051 432.006,486.064 431.74,486.064C431.474,486.065 431.209,486.056 430.943,486.036C430.83,486.027 430.697,486.013 430.547,485.993C429.832,485.89 429.656,485.854 428.991,485.653C428.826,485.602 428.7,485.56 428.612,485.528C428.362,485.435 428.118,485.331 427.878,485.215C427.637,485.103 427.402,484.979 427.174,484.842C427.085,484.788 426.973,484.716 426.838,484.626C426.616,484.48 426.401,484.324 426.193,484.157C425.99,483.986 425.792,483.808 425.602,483.623C425.485,483.509 425.392,483.414 425.322,483.338C425.254,483.264 425.167,483.164 425.061,483.036C424.892,482.832 424.73,482.621 424.577,482.403C424.316,482.028 423.973,481.429 423.793,481.016C423.591,480.561 423.413,480.114 423.253,479.516C423.149,479.139 423.06,478.726 423.005,478.347C422.964,478.084 422.932,477.82 422.91,477.555C422.902,477.444 422.894,477.312 422.886,477.157C422.866,476.725 422.868,476.405 422.892,475.961C422.9,475.809 422.909,475.676 422.918,475.563C422.942,475.298 422.973,475.034 423.013,474.771C423.051,474.508 423.098,474.246 423.155,473.986C423.21,473.726 423.272,473.467 423.34,473.21C423.367,473.108 423.403,472.981 423.449,472.826C423.525,472.572 423.607,472.318 423.694,472.067C423.726,471.974 423.772,471.85 423.831,471.693C423.983,471.294 424.117,470.96 424.288,470.587C424.397,470.344 424.51,470.104 424.627,469.865C424.671,469.778 424.731,469.659 424.808,469.509C424.93,469.273 425.056,469.038 425.185,468.806C425.236,468.714 425.301,468.599 425.382,468.459C425.515,468.229 425.651,468 425.79,467.774C425.85,467.677 425.92,467.564 426.002,467.436C426.286,466.99 426.557,466.584 426.89,466.11C426.962,466.007 427.039,465.899 427.121,465.785C427.276,465.569 427.433,465.355 427.593,465.142C427.659,465.053 427.739,464.946 427.832,464.823C427.993,464.611 428.155,464.4 428.318,464.19C428.38,464.111 428.461,464.006 428.564,463.875C428.727,463.666 428.892,463.457 429.057,463.249C429.137,463.148 429.22,463.044 429.305,462.936C429.471,462.728 429.636,462.52 429.802,462.312C430.367,461.601 430.526,461.4 431.041,460.749C431.288,460.436 431.536,460.123 431.783,459.81C432.156,459.338 432.477,458.937 432.78,458.564C433.076,458.198 433.239,458.001 433.541,457.64C433.66,457.498 433.745,457.396 433.797,457.335C433.969,457.132 434.143,456.93 434.317,456.73C434.492,456.529 434.667,456.329 434.844,456.131C435.022,455.933 435.201,455.736 435.38,455.539C435.559,455.343 435.74,455.148 435.922,454.954C436.212,454.645 436.444,454.4 436.746,454.086C436.838,453.99 436.93,453.894 437.023,453.799C437.266,453.548 437.606,453.2 437.859,452.943C438.046,452.754 438.233,452.565 438.421,452.376C438.608,452.188 438.796,452 438.985,451.812C439.173,451.624 439.362,451.436 439.551,451.25C439.74,451.063 439.929,450.876 440.119,450.69C440.224,450.587 440.319,450.494 440.404,450.411C440.594,450.225 440.785,450.04 440.976,449.855C441.373,449.471 441.744,449.118 442.132,448.754C442.325,448.572 442.52,448.39 442.715,448.21C442.911,448.03 443.107,447.85 443.303,447.671C443.5,447.492 443.698,447.315 443.897,447.138C444.096,446.961 444.295,446.785 444.495,446.61C444.874,446.282 445.237,445.967 445.707,445.572C446.032,445.299 446.29,445.085 446.627,444.807C446.879,444.6 447.273,444.278 447.554,444.05C447.761,443.882 447.967,443.715 448.174,443.547C448.484,443.296 448.794,443.045 449.104,442.794C449.62,442.376 450.136,441.956 450.65,441.534C450.959,441.282 451.267,441.029 451.576,440.776C451.88,440.527 452.249,440.227 452.504,440.02C452.854,439.736 453.113,439.529 453.437,439.271C453.842,438.947 454.319,438.578 454.695,438.289C454.906,438.127 455.118,437.967 455.331,437.807C455.71,437.523 455.909,437.376 456.293,437.096C456.508,436.939 456.724,436.784 456.94,436.629C457.184,436.454 457.668,436.113 457.918,435.94C458.002,435.881 458.112,435.806 458.246,435.713C458.465,435.562 458.685,435.412 458.905,435.263C459.306,434.992 459.776,434.679 460.234,434.379C460.457,434.234 460.68,434.089 460.903,433.946C461.127,433.801 461.351,433.658 461.576,433.516C461.801,433.374 462.026,433.232 462.251,433.091C462.477,432.95 462.703,432.81 462.929,432.671C463.155,432.531 463.382,432.392 463.609,432.254C463.694,432.202 463.808,432.133 463.95,432.047C464.177,431.909 464.405,431.771 464.633,431.635C464.942,431.45 465.384,431.187 465.662,431.023C465.942,430.858 466.434,430.57 466.695,430.419C466.942,430.276 467.482,429.965 467.733,429.822C468.114,429.605 468.671,429.289 469.122,429.038C469.354,428.908 469.586,428.778 469.819,428.649C470.108,428.489 470.565,428.237 470.867,428.072C471.177,427.902 471.61,427.666 471.918,427.499C472.244,427.323 472.657,427.101 472.973,426.934C473.207,426.809 473.443,426.684 473.678,426.561C473.809,426.493 473.926,426.432 474.032,426.377C474.17,426.305 474.288,426.244 474.386,426.194C474.623,426.072 474.86,425.952 475.098,425.832C475.229,425.767 475.348,425.707 475.455,425.654C475.693,425.536 475.932,425.419 476.171,425.303C476.41,425.187 476.65,425.073 476.891,424.959C477.131,424.846 477.373,424.733 477.614,424.622C477.925,424.48 478.387,424.271 478.705,424.13C478.948,424.022 479.191,423.915 479.435,423.809C479.551,423.758 479.673,423.706 479.801,423.65C480.046,423.545 480.29,423.441 480.535,423.337C480.78,423.234 481.025,423.131 481.271,423.029C481.516,422.927 481.762,422.825 482.009,422.725C482.255,422.625 482.501,422.525 482.748,422.426C482.995,422.327 483.242,422.229 483.49,422.132C483.656,422.066 483.78,422.018 483.861,421.986C484.109,421.89 484.358,421.795 484.606,421.701C484.755,421.644 484.88,421.597 484.979,421.559C485.228,421.466 485.478,421.374 485.727,421.282C485.86,421.233 485.985,421.187 486.102,421.145C486.352,421.055 486.603,420.965 486.853,420.876C487.12,420.781 487.718,420.573 487.983,420.483C488.259,420.389 488.832,420.197 489.118,420.103C489.371,420.021 489.624,419.939 489.878,419.858C489.996,419.82 490.123,419.78 490.258,419.738C490.512,419.658 490.766,419.579 491.02,419.501C491.274,419.424 491.529,419.348 491.784,419.272C491.928,419.23 492.055,419.193 492.167,419.16C492.423,419.087 492.678,419.014 492.934,418.941C493.223,418.86 493.802,418.702 494.089,418.626C494.346,418.559 494.603,418.492 494.861,418.426C495.165,418.348 495.745,418.205 496.023,418.139C496.282,418.078 496.541,418.018 496.8,417.959C497.059,417.9 497.319,417.844 497.579,417.788C497.839,417.732 498.1,417.679 498.361,417.628C498.622,417.575 498.883,417.526 499.145,417.48C499.33,417.447 499.461,417.424 499.538,417.411C499.8,417.366 500.062,417.323 500.325,417.283C500.588,417.242 500.851,417.204 501.115,417.169C501.329,417.14 501.461,417.123 501.51,417.116C501.555,417.111 501.687,417.095 501.906,417.07C502.171,417.038 502.435,417.01 502.7,416.985C502.964,416.959 503.229,416.935 503.494,416.914C503.76,416.893 504.025,416.874 504.29,416.856C504.556,416.84 504.821,416.825 505.087,416.811C505.124,416.809 505.257,416.803 505.485,416.793C505.751,416.78 506.017,416.77 506.282,416.763C506.548,416.754 506.814,416.747 507.08,416.742C507.346,416.736 507.612,416.732 507.878,416.729C508.144,416.726 508.41,416.724 508.675,416.724C508.941,416.724 509.207,416.725 509.473,416.726C509.532,416.726 509.665,416.728 509.872,416.731C510.138,416.733 510.404,416.738 510.67,416.744C510.936,416.749 511.202,416.757 511.467,416.767C511.677,416.774 511.81,416.779 511.866,416.781C512.132,416.792 512.397,416.805 512.663,416.818C512.928,416.833 513.194,416.849 513.459,416.868C513.725,416.885 513.99,416.906 514.255,416.93C514.52,416.952 514.784,416.977 515.049,417.007C515.259,417.03 515.391,417.044 515.445,417.051C515.709,417.083 515.973,417.117 516.236,417.152C516.5,417.189 516.763,417.228 517.025,417.271C517.288,417.311 517.55,417.356 517.812,417.405C518.074,417.451 518.335,417.5 518.596,417.553C518.722,417.578 518.853,417.604 518.987,417.632C519.247,417.685 519.508,417.74 519.767,417.797C519.92,417.829 520.05,417.858 520.157,417.881C520.417,417.938 520.677,417.995 520.937,418.052C521.196,418.11 521.456,418.165 521.717,418.219C521.885,418.254 522.016,418.281 522.107,418.3C522.368,418.353 522.629,418.402 522.892,418.447C523.153,418.495 523.416,418.536 523.679,418.573C523.792,418.588 523.924,418.605 524.075,418.624C524.263,418.647 524.395,418.662 524.471,418.669C524.736,418.693 525.001,418.712 525.267,418.725C525.441,418.734 525.574,418.74 525.666,418.742C525.931,418.745 526.197,418.743 526.463,418.737C526.729,418.73 526.995,418.715 527.26,418.691C527.525,418.67 527.789,418.643 528.053,418.609C528.391,418.564 528.877,418.494 529.235,418.425C529.596,418.358 529.981,418.286 530.409,418.193C530.67,418.138 530.93,418.082 531.189,418.025C531.449,417.967 531.709,417.911 531.968,417.854C532.228,417.797 532.488,417.741 532.749,417.686C533.009,417.631 533.269,417.578 533.531,417.528C533.73,417.489 533.861,417.463 533.922,417.452C534.184,417.404 534.446,417.358 534.708,417.314C534.97,417.269 535.233,417.229 535.496,417.191C535.692,417.162 535.824,417.143 535.891,417.134C536.155,417.1 536.419,417.067 536.683,417.036C536.766,417.026 536.898,417.012 537.079,416.994C537.344,416.966 537.609,416.941 537.874,416.919C538.139,416.897 538.404,416.877 538.669,416.859C538.935,416.843 539.2,416.827 539.466,416.813C539.505,416.81 539.638,416.805 539.864,416.795C540.13,416.783 540.396,416.773 540.662,416.766C541.127,416.75 541.846,416.739 542.257,416.737C542.523,416.735 542.789,416.735 543.055,416.735C543.115,416.735 543.248,416.736 543.454,416.738C543.72,416.739 543.985,416.743 544.251,416.749C544.483,416.754 544.616,416.757 544.65,416.758C544.916,416.765 545.182,416.774 545.448,416.783C545.713,416.793 545.979,416.805 546.245,416.818C546.51,416.832 546.776,416.847 547.041,416.864C547.307,416.881 547.572,416.9 547.837,416.922C548.102,416.943 548.367,416.966 548.631,416.993C548.896,417.017 549.161,417.045 549.425,417.077C549.689,417.106 549.953,417.139 550.217,417.174C550.48,417.209 550.744,417.246 551.007,417.284C551.27,417.324 551.533,417.365 551.795,417.407C551.846,417.415 551.977,417.438 552.189,417.474C552.451,417.518 552.713,417.565 552.974,417.614C553.235,417.662 553.497,417.712 553.758,417.763C553.833,417.778 553.963,417.804 554.149,417.841C554.41,417.893 554.67,417.947 554.93,418.003C555.117,418.043 555.247,418.071 555.32,418.087C555.58,418.143 555.84,418.201 556.099,418.26C556.276,418.3 556.405,418.329 556.488,418.349C556.747,418.409 557.006,418.471 557.264,418.533C557.523,418.595 557.781,418.659 558.039,418.724C558.218,418.769 558.347,418.802 558.425,418.822C558.683,418.889 558.94,418.957 559.197,419.026C559.453,419.096 559.71,419.167 559.965,419.239C560.151,419.292 560.279,419.328 560.349,419.348C560.604,419.423 560.859,419.499 561.114,419.575C561.258,419.619 561.385,419.658 561.495,419.692C561.581,419.719 561.708,419.759 561.876,419.811C562.13,419.891 562.383,419.973 562.635,420.056C562.888,420.14 563.14,420.224 563.392,420.309C563.643,420.396 563.895,420.483 564.145,420.572C564.396,420.66 564.647,420.75 564.896,420.842C565.327,420.999 565.582,421.094 566.018,421.26C566.266,421.354 566.514,421.45 566.762,421.547C567.01,421.644 567.257,421.742 567.504,421.84C567.777,421.95 568.341,422.179 568.612,422.292C568.682,422.321 568.805,422.372 568.98,422.445C569.226,422.548 569.471,422.651 569.716,422.755C569.96,422.86 570.204,422.965 570.448,423.071C570.692,423.177 570.936,423.283 571.179,423.391C571.613,423.583 571.849,423.689 572.271,423.88C572.722,424.085 572.922,424.177 573.359,424.379C573.806,424.587 574.005,424.681 574.442,424.889C574.682,425.003 574.922,425.118 575.161,425.234C575.239,425.272 575.359,425.33 575.52,425.409C575.759,425.525 575.997,425.643 576.235,425.761C576.474,425.879 576.712,425.998 576.949,426.117C577.187,426.237 577.424,426.357 577.661,426.478C578.081,426.692 578.302,426.805 578.726,427.024C578.962,427.146 579.198,427.269 579.434,427.392C579.669,427.515 579.905,427.639 580.14,427.763C580.375,427.887 580.61,428.012 580.845,428.137C581.079,428.263 581.314,428.389 581.547,428.515C581.781,428.642 582.015,428.769 582.248,428.897C582.394,428.978 582.511,429.042 582.597,429.09C582.83,429.219 583.061,429.349 583.293,429.48C583.429,429.556 583.544,429.622 583.64,429.676C583.871,429.808 584.102,429.941 584.332,430.075C584.562,430.208 584.791,430.343 585.02,430.478C585.372,430.687 585.681,430.871 586.047,431.092C586.367,431.285 586.727,431.505 587.069,431.715C587.749,432.132 588.427,432.553 589.103,432.977C589.328,433.118 589.553,433.26 589.778,433.402C590.183,433.66 590.414,433.807 590.786,434.047C591.009,434.191 591.232,434.336 591.454,434.482C591.676,434.629 591.898,434.776 592.119,434.923C592.34,435.071 592.561,435.22 592.78,435.371C593,435.521 593.218,435.672 593.437,435.824C593.509,435.874 593.617,435.95 593.763,436.053C593.981,436.206 594.197,436.36 594.414,436.515C594.501,436.577 594.609,436.655 594.738,436.748C595.061,436.981 595.376,437.211 595.705,437.452C595.919,437.61 596.133,437.768 596.346,437.927C596.56,438.085 596.773,438.244 596.985,438.404C597.198,438.564 597.41,438.724 597.622,438.885C597.714,438.954 597.819,439.035 597.94,439.127C598.151,439.288 598.362,439.45 598.572,439.613C598.783,439.775 598.992,439.939 599.201,440.103C599.411,440.267 599.619,440.432 599.827,440.598C600.197,440.894 600.634,441.245 601.068,441.602C601.371,441.851 601.673,442.101 601.99,442.365C602.252,442.583 602.634,442.904 602.907,443.134C603.144,443.334 603.574,443.698 603.82,443.907C604.023,444.079 604.225,444.252 604.427,444.425C604.88,444.812 605.2,445.088 605.635,445.467C606.062,445.837 606.775,446.466 607.133,446.785C607.363,446.99 607.801,447.383 608.023,447.584C608.234,447.774 608.681,448.18 608.909,448.388C609.162,448.619 609.528,448.955 609.791,449.198C609.986,449.378 610.181,449.559 610.375,449.741C610.474,449.833 610.571,449.924 610.667,450.013C610.791,450.13 610.888,450.221 610.957,450.287C611.15,450.469 611.343,450.653 611.535,450.837C611.727,451.02 611.919,451.205 612.109,451.391C612.3,451.576 612.489,451.763 612.678,451.95C612.867,452.137 613.055,452.325 613.241,452.515C613.428,452.705 613.614,452.895 613.799,453.086C613.983,453.278 614.167,453.47 614.349,453.664C614.448,453.769 614.539,453.866 614.622,453.955C614.717,454.058 614.808,454.155 614.893,454.247C615.238,454.623 615.664,455.094 615.961,455.433C616.137,455.632 616.312,455.832 616.487,456.033C616.662,456.233 616.836,456.434 617.009,456.636C617.242,456.907 617.524,457.237 617.787,457.546C617.959,457.748 618.132,457.951 618.304,458.153C618.734,458.66 619.166,459.166 619.597,459.672C619.77,459.874 619.942,460.076 620.115,460.278C620.337,460.539 620.714,460.982 620.89,461.19C621.181,461.534 621.417,461.815 621.659,462.107C621.952,462.459 622.143,462.693 622.417,463.033C622.584,463.24 622.75,463.448 622.913,463.658C623.077,463.868 623.24,464.078 623.401,464.289C623.562,464.501 623.722,464.714 623.879,464.928C623.98,465.064 624.059,465.171 624.116,465.249C624.272,465.464 624.427,465.681 624.579,465.899C624.672,466.03 624.748,466.14 624.808,466.226C624.96,466.444 625.109,466.664 625.256,466.885C625.404,467.106 625.551,467.328 625.695,467.552C625.839,467.776 625.98,468 626.121,468.226C626.205,468.362 626.274,468.475 626.329,468.566C626.517,468.878 626.771,469.316 626.929,469.602C627.103,469.915 627.339,470.368 627.484,470.662C627.601,470.901 627.713,471.142 627.821,471.385C627.886,471.533 627.939,471.655 627.979,471.751C628.109,472.057 628.294,472.553 628.4,472.871C628.484,473.124 628.561,473.378 628.63,473.635C628.673,473.79 628.706,473.919 628.731,474.021C628.793,474.28 628.846,474.54 628.891,474.802C628.919,474.96 628.94,475.091 628.955,475.196C628.992,475.46 629.02,475.724 629.038,475.989C629.05,476.148 629.058,476.281 629.061,476.387C629.07,476.653 629.07,476.919 629.059,477.185C629.053,477.34 629.046,477.473 629.038,477.583C629.018,477.849 628.987,478.113 628.945,478.375C628.877,478.812 628.808,479.13 628.69,479.544C628.618,479.8 628.536,480.052 628.442,480.301C628.347,480.55 628.242,480.794 628.127,481.034C628.014,481.275 627.889,481.509 627.75,481.736C627.612,481.964 627.467,482.186 627.314,482.404C627.155,482.618 626.988,482.824 626.812,483.024C626.699,483.154 626.61,483.253 626.545,483.32C626.36,483.512 626.166,483.694 625.963,483.866C625.764,484.042 625.556,484.207 625.339,484.362C625.264,484.416 625.153,484.489 625.008,484.584C624.785,484.729 624.557,484.865 624.322,484.991C624.085,485.111 623.844,485.224 623.599,485.328C623.464,485.385 623.341,485.434 623.229,485.475C622.734,485.651 622.247,485.788 621.689,485.886C621.566,485.908 621.434,485.927 621.295,485.945C621.031,485.977 620.766,485.999 620.5,486.013C620.385,486.017 620.252,486.019 620.101,486.017C619.836,486.012 619.57,486 619.305,485.981C619.04,485.955 618.776,485.917 618.515,485.869C618.252,485.825 617.993,485.769 617.735,485.701C617.653,485.679 617.525,485.642 617.352,485.589C617.097,485.514 616.846,485.429 616.597,485.334C616.527,485.307 616.404,485.256 616.228,485.181C615.983,485.078 615.741,484.968 615.503,484.849C615.421,484.808 615.304,484.745 615.15,484.663C614.916,484.537 614.685,484.405 614.458,484.266C614.232,484.127 614.009,483.982 613.788,483.833C613.69,483.766 613.581,483.69 613.461,483.606C613.244,483.451 613.03,483.293 612.82,483.131C612.61,482.968 612.402,482.802 612.195,482.634C612.11,482.564 612.008,482.479 611.889,482.379C611.686,482.207 611.485,482.033 611.284,481.858C611.211,481.794 611.111,481.706 610.986,481.593C610.756,481.386 610.352,481.021 610.102,480.787C609.906,480.607 609.712,480.426 609.517,480.244C609.225,479.972 608.934,479.7 608.641,479.429C608.299,479.11 608.034,478.866 607.761,478.618C607.302,478.201 607.053,477.977 606.572,477.554C606.572,477.554 606.472,477.467 606.06,477.11Z" style="fill-rule:nonzero;"/><path d="M722.555,473.496C710.164,495.151 694.135,513.601 676.021,530.787C670.618,535.913 664.419,540.132 658.522,544.683C655.705,546.858 650.967,549.248 649.147,552.609C646.602,557.31 647.445,561.691 647.351,566.71C647.251,572.049 646.847,577.383 646.898,582.723C646.94,587.171 647.482,594.273 649.971,598.309C652.048,601.676 655.469,601.544 658.788,601.899C665.797,602.648 672.869,602.894 679.832,603.99C713.403,609.276 732.51,613.287 764.763,624.129C781.661,629.809 798.451,635.892 814.835,642.917C831.214,649.94 847.036,658.202 862.946,666.23C880.026,674.848 897.237,684.216 908.581,700.109C915.908,710.375 921.446,723.558 925.765,734.908C931.845,750.888 937.233,770.337 940.476,787.104C944.257,806.654 945.564,821.196 945.926,841.072C946.407,867.502 945.427,877.701 943.09,903.984C942.576,909.764 942.095,918.175 938.16,923.085C936.356,925.337 933.479,926.531 930.855,927.733C918.991,933.167 905.889,935.34 893.428,939.217C854.937,951.192 816.469,963.239 777.983,975.23C720.444,993.157 662.9,1011.07 605.352,1028.97C588.202,1034.3 571.023,1039.55 553.887,1044.92C544.559,1047.85 535.384,1051.9 525.355,1052C517.041,1052.08 507.576,1048.14 499.885,1045.71C484.915,1040.98 469.926,1036.32 454.938,1031.65C401.081,1014.87 347.212,998.136 293.349,981.381C247.744,967.195 202.136,953.016 156.531,938.829C146.749,935.786 136.94,932.83 127.189,929.691C120.923,927.673 113.841,926.171 111.345,919.211C102.22,893.765 105.431,861.965 106.735,835.844C107.826,814.007 109.903,792.518 114.852,771.165C120.262,747.82 128.128,721.908 141.854,701.804C153.846,684.242 171.874,674.636 190.457,665.24C218.087,651.269 239.99,640.737 269.219,630.38C301.852,618.816 335.133,609.125 369.457,604.256C376.832,603.21 384.284,602.813 391.687,601.995C395.352,601.591 401.547,601.645 402.475,596.597C403.123,593.069 402.956,589.437 403.317,585.868C404.218,576.965 408.489,561.279 402.576,552.354C399.072,547.067 393.52,545.348 388.871,541.5C380.882,534.889 372.76,528.375 365.48,520.991C348.718,503.988 334.55,485.558 324.055,464.179C318.416,452.69 314.09,441.533 310.418,429.275C307.838,420.661 308.614,416.741 304.466,408.603C302.8,405.335 299.286,404.077 296.749,401.797C293.19,398.598 289.655,395.351 286.445,391.802C275.945,380.193 269.185,365.141 265.772,349.989C263.201,338.571 262.532,323.183 269.855,312.894C271.694,310.31 279.501,305.27 281.121,302.356C282.264,300.3 282.198,297.766 282.484,295.431C284.323,280.372 285.664,280.841 288.72,265.8C290.428,257.393 288.546,255.937 288.329,247.561C288.104,238.919 287.76,230.253 288.337,221.628C291.011,181.711 302.129,141.153 326.069,108.532C352.102,73.06 389.894,48.094 431.474,34.567C447.718,29.282 474.77,24.869 491.285,20.724C497.929,19.057 499.782,12.091 504.428,8.021C511.082,2.193 516.528,0.091 525.382,0.003C534.48,-0.088 540.327,1.816 547.258,7.786C552.187,12.03 553.621,19.046 560.603,20.76C572.542,23.691 599.919,28.057 611.657,31.86C659.44,47.34 707.328,75.373 733.275,120.053C748.019,145.442 756.865,172.114 761.076,201.139C762.459,210.677 763.334,220.299 763.754,229.927C764.295,242.332 761.691,249.363 762.495,261.779C763.116,271.372 766.08,272.47 767.641,281.83C768.514,287.071 768.154,292.468 769.018,297.711C770.238,305.114 778.775,308.693 782.658,314.173C789.754,324.187 787.703,338.996 785.881,349.862C783.295,365.291 774.777,381.927 764.014,393.248C760.398,397.051 750.185,403.862 747.321,408.57C742.748,416.085 742.199,426.442 739.614,434.541C735.102,448.679 729.871,460.585 722.555,473.496M668.288,648.769C656.581,660.055 642.434,669.174 628.153,676.816C595.206,694.445 555.241,707.818 517.349,705.507C483.52,703.444 450.114,691.106 420.543,675.167C405.309,666.956 391.141,656.767 379.052,644.352C375.612,640.819 372.316,637.167 369.548,633.076C367.507,630.06 365.774,626.291 361.915,625.374C358.672,624.603 354.828,625.825 351.655,626.459C344.995,627.788 338.393,629.303 331.786,630.876C304.573,637.354 277.682,646.485 251.885,657.272C230.539,666.199 209.488,675.987 189.504,687.68C181.094,692.6 171.498,697.151 164.593,704.147C154.342,714.534 147.699,730.266 142.73,743.79C132.035,772.9 126.981,803.092 125.05,833.894C123.845,853.114 123.376,871.994 125.866,891.2C126.684,897.514 126.055,907.165 132.315,910.929C141.441,916.416 154.375,918.42 164.515,921.517C185.13,927.813 205.695,934.26 226.258,940.723C233.493,942.997 240.736,945.245 247.995,947.442C250.472,948.191 254.351,949.927 256.892,948.486C260.904,946.211 259.353,936.032 259.353,932.453C259.355,917.153 259.247,901.85 259.368,886.55C259.42,879.928 260.532,867.007 270.73,869.748C280.217,872.297 278.511,885.365 278.513,892.765C278.518,907.534 278.514,922.302 278.514,937.071C278.514,941.985 276.891,952.458 281.046,956.457C285.109,960.367 292.502,961.222 297.681,962.891C310.469,967.012 323.36,970.82 336.174,974.863C381.725,989.232 427.367,1003.32 472.964,1017.53C483.633,1020.86 494.364,1024 504.992,1027.45C511.53,1029.58 518.789,1032.86 525.791,1032.83C534.52,1032.78 543.71,1028.29 551.921,1025.76C568.832,1020.55 585.71,1015.24 602.622,1010.02C639.999,998.508 677.346,986.852 714.643,975.077C731.998,969.599 751.404,965.935 767.902,958.191C775.627,954.565 773.486,943.334 773.486,936.462C773.486,922.625 773.486,908.788 773.486,894.95C773.486,888.636 772.165,879.489 775.584,873.713C779.073,867.819 787.353,868.465 790.618,874.216C793.745,879.724 792.647,887.864 792.647,893.878L792.647,932.197C792.647,935.971 791.015,946.192 795.256,948.524C797.245,949.618 800.353,948.407 802.269,947.847C808.138,946.131 813.947,944.169 819.788,942.354C843.165,935.089 866.519,927.735 889.914,920.533C896.4,918.536 902.879,916.522 909.354,914.491C915.6,912.533 922.169,911.19 924.004,904.013C928.365,886.962 926.768,866.497 926.768,849.508C926.768,813.162 921.666,775.959 908.093,742.016C902.895,729.016 897.026,714.373 887.035,704.197C879.391,696.412 868.397,691.275 859.015,685.918C837.505,673.637 814.961,663.342 791.929,654.275C768.122,644.902 743.949,636.793 719.077,630.704C712.492,629.091 705.87,627.543 699.207,626.285C696.034,625.686 692.145,624.606 688.945,625.628C685.245,626.81 683.355,631.057 681.325,634.034C677.762,639.261 673.482,643.684 668.974,648.101C668.974,648.101 668.879,648.194 668.288,648.769M473.572,518.985C481.689,522.156 491.906,528.617 501.383,526.829C506.755,525.816 509.383,517.955 513.356,515.414C515.665,513.938 518.527,513.471 521.24,513.084C529.092,511.965 536.479,513.177 542.176,518.837C544.961,521.604 547.435,527.744 552.624,527.021C566.689,525.063 582.234,517.772 594.843,512.1C618.206,501.592 638.631,487.188 659.08,471.944C671.772,462.483 681.545,453.477 690.34,439.86C701.788,422.135 706.9,403.029 712.369,382.971C714.07,376.737 714.585,373.231 719.309,368.455C722.578,365.15 726.367,365.775 728.864,361.448C730.882,357.953 729.742,353.286 729.284,349.705C727.936,339.19 727.837,333.131 723.549,323.27C720.457,316.158 708.944,309.476 703.34,305.985C678.751,290.668 668.605,284.356 641.596,273.652C609.462,260.918 596.144,257.841 562.451,250.428C553.772,248.519 536.996,245.912 528.067,245.857C516.659,245.787 500.406,248.031 489.3,250.472C451.473,258.786 439.416,261.741 403.478,276.326C379.733,285.963 369.65,292.521 348.085,306.195C339.256,311.794 329.351,318.002 325.798,328.407C323.733,334.453 322.769,345.069 322.183,350.354C321.761,354.153 321.186,358.109 323.219,361.681C325.039,364.877 328.513,365.453 331.063,367.701C334.775,370.974 336.964,374.083 338.224,378.922C342.964,397.119 340.673,397.65 348.094,415.005C357.724,437.529 373.205,456.753 391.791,472.53C415.758,492.877 444.404,507.665 473.572,518.985M750.633,290.57C749.629,281.701 746.774,269.137 741.017,262.028C737.834,258.096 732.626,255.564 728.396,253.031C718.685,247.216 708.432,242.387 698.01,238.001C651.185,218.299 597.082,205.909 546.137,205.909L505.423,205.909C478.635,205.909 451.704,210.174 425.595,215.981C395.037,222.777 364.58,231.786 336.474,245.798C327.788,250.128 316.322,254.935 310.001,262.631C306.069,267.419 304.464,275.383 302.915,281.201C301.411,286.847 299.333,295.005 303.061,300.209C306.871,305.527 314.626,304.913 319.898,302.552C325.314,300.126 329.744,295.613 334.552,292.214C342.605,286.519 351.052,281.486 359.576,276.543C395.036,255.979 435.717,242.316 475.695,233.911C493.138,230.244 512.26,225.742 530.203,226.852C555.257,228.401 580.531,234.266 604.572,241.131C632.994,249.248 661.202,259.572 687.168,273.84C701.416,281.67 714.204,291.053 727.641,300.102C736.817,306.281 751.608,305.993 750.72,291.638C750.72,291.638 750.711,291.506 750.633,290.57M605.743,573.483C572.659,586.808 536.417,594.359 500.829,588.732C490.055,587.029 472.89,582.921 463.366,579.9C456.078,577.589 448.949,574.784 441.882,571.866C437.023,569.86 423.738,559.894 422.447,571.382C422.213,573.459 422.306,575.561 422.24,577.65C422.086,582.572 421.707,587.491 421.785,592.415C421.862,597.335 421.658,602.341 422.706,607.15C423.975,612.969 428.443,616.607 433.089,619.624C445.36,627.593 453.765,632.028 467.582,636.92C476.999,640.254 486.54,643.268 496.187,645.863C524.684,653.53 552.657,647.707 579.975,638.354C593.208,633.824 611.316,627.142 622.083,616.926C633.123,606.449 629.976,593.078 629.158,579.275C629.019,576.934 629.528,567.475 625.546,565.975C623.618,565.249 620.647,566.945 619.089,567.628C614.64,569.579 610.244,571.653 605.743,573.483M473.05,60.747C427.286,85.396 381.827,120.636 358.07,168.216C349.815,184.751 349.345,188.718 345.423,206.672C344.914,209 342.415,217.434 346.466,219.348C351.014,221.496 359.36,215.312 362.671,214.232C377.458,209.405 392.307,204.725 407.344,200.745C417.885,197.956 428.642,196.048 439.341,193.941C443.337,193.154 449.687,193.327 453.34,190.9C455.919,189.187 452.873,186.216 452.276,185.086C449.365,179.577 446.074,174.231 443.766,168.444C438.403,154.991 440.132,136.879 446.398,124.044C455.382,105.64 471.542,91.359 490.824,84.403C492.369,83.846 514.791,80.371 519.227,75.799C521.178,73.789 521.141,69.862 521.171,67.412C521.243,61.294 521.282,55.175 521.183,49.058C521.151,47.13 521.575,39.905 517.275,40.262C505.651,41.226 474.126,60.168 473.05,60.747M604.068,177.325C602.158,180.894 597.649,184.942 597.529,189.494C597.424,193.472 611.844,193.792 612.351,193.901C627.693,197.184 643.071,200.376 658.222,204.454C669.65,207.53 680.79,211.594 692.015,215.344C693.826,215.949 703.354,221.524 705.427,216.487C707.251,212.058 706.486,206.321 705.45,201.892C701.997,187.118 700.114,180.543 693.057,167.05C670.001,122.963 628.275,89.104 585.844,64.764C573.502,57.685 560.522,51.782 547.836,45.341C546.266,44.543 536.392,38.308 533.246,40.68C530.189,42.983 530.844,46.734 530.805,49.857C530.722,56.648 526.907,71.976 533.961,76.864C537.913,79.602 543.821,79.446 548.191,80.55C556.027,82.529 564.188,85.301 571.329,89.151C602.288,105.84 621.433,144.019 604.068,177.325M644.265,643.917C650.096,639.296 655.456,634.103 660.855,628.985C661.519,628.355 664.088,625.615 663.946,623.915C663.632,620.16 656.308,620.74 654.108,621.097C651.2,621.57 648.226,622.005 645.514,623.154C639.67,625.628 626.332,637.47 623.644,639.226C602.644,652.947 577.437,660.012 553.149,665.011C542.46,667.21 532.898,669.163 521.89,668.374C491.497,666.193 459.373,657.343 432.965,642.015C419.771,634.357 421.317,632.343 408.407,624.335C403.146,621.072 399.74,620.744 393.606,620.941C391.804,620.999 388.07,621.326 387.925,624.199C387.695,628.756 396.442,634.953 398.748,636.765C419.108,652.761 419.326,653.405 442.516,665.05C465.083,676.382 490.047,684.561 515.34,686.321C560.805,689.485 608.865,671.735 644.265,643.917M295.459,325.029C294.416,324.452 293.3,323.981 292.146,323.681C284.58,321.711 283.13,331.259 283.367,336.652C283.876,348.247 287.57,358.233 293.078,368.325C294.583,371.082 296.583,375.623 299.764,377.181C301.887,378.221 302.284,374.863 302.33,373.784C302.534,369.003 302.229,364.206 302.526,359.431C302.983,352.069 305.017,344.78 304.712,337.409C304.649,335.897 304.57,334.309 303.93,332.938C302.404,329.666 299.221,327.364 296.298,325.531C296.298,325.531 296.186,325.461 295.459,325.029M768.419,332.181C768.22,330.335 767.75,327.585 766.48,325.927C761.259,319.107 749.947,327.388 747.74,333.093C745.083,339.963 748.956,355.289 749.335,360.327C749.893,367.74 748.812,367.734 749.994,375.028C750.36,377.286 752.641,376.707 753.733,375.288C755.995,372.346 757.969,369.182 759.807,365.958C765.506,355.957 769.337,343.785 768.419,332.181M381.823,104.847C382.285,104.371 382.738,103.884 383.153,103.366C384.632,101.518 384.247,99.767 381.603,99.273C379.898,98.954 376.759,98.951 374.69,98.939C369.909,98.912 363.942,98.256 359.33,100.368C356.471,101.677 354.931,103.283 352.876,105.587C352.347,106.181 351.845,106.809 351.442,107.494C350.454,109.173 351.236,110.953 353.178,111.297C356.225,111.838 358.043,111.703 361.119,111.698C365.566,111.691 371.037,112.272 375.261,110.147C377.977,108.78 379.719,106.973 381.823,104.847M676.777,110.181C677.02,110.286 677.141,110.339 677.141,110.339C682.264,112.512 688.347,111.773 693.668,111.664C695.206,111.633 701.674,111.956 700.203,108.24C699.917,107.518 699.527,106.83 699.052,106.217C698.12,105.012 697.157,103.809 696.004,102.814C694.856,101.824 693.583,100.945 692.206,100.31C686.942,97.885 679.901,98.833 674.491,98.969C673.283,98.999 666.392,98.74 668.096,102.179C668.421,102.835 668.839,103.451 669.324,103.999C670.4,105.214 671.512,106.412 672.762,107.449C674.008,108.482 675.342,109.431 676.777,110.181M669.545,80.173C663.181,76.169 655.944,76.682 648.725,76.6C647.269,76.583 639.673,76.358 642.613,80.267C642.938,80.7 643.377,81.038 643.802,81.373C645.989,83.1 648.086,84.965 650.444,86.449C656.493,90.257 663.872,89.346 670.608,89.325C671.634,89.322 679.005,90.005 677.429,86.482C676.188,83.709 672.9,82.399 670.373,80.713C670.373,80.713 670.262,80.639 669.545,80.173M394.901,76.636C388.601,76.835 383.542,79.081 378.519,82.739C376.736,84.037 371.6,87.62 376.46,89.042C377.168,89.249 377.927,89.225 378.664,89.241C382.112,89.315 385.562,89.392 389.009,89.31C395.527,89.154 400.524,86.974 405.666,83.104C406.866,82.202 412.118,78.055 407.772,77.023C407.057,76.854 406.323,76.741 405.589,76.719C402.028,76.612 398.463,76.565 394.901,76.636M362.592,126.003C363.765,124.129 363.583,122.253 361.054,121.605C360.808,121.542 356.154,120.983 354.63,120.799C349.442,120.173 342.814,119.063 338.977,123.669C338.043,124.79 337.221,126.004 336.437,127.234C336.152,127.682 335.913,128.17 335.78,128.684C334.681,132.916 341.216,132.431 343.651,132.441C349.745,132.466 355.958,133.265 360.593,128.527C361.344,127.76 361.995,126.895 362.592,126.003M705.202,132.441C708.348,132.452 712.912,133.37 715.473,130.686C716.681,129.419 714.951,126.773 714.382,125.902C712.148,122.484 708.867,120.111 704.649,120.109C702.73,120.108 700.816,120.323 698.907,120.517C696.995,120.712 695.094,121.006 693.191,121.275C692.199,121.415 690.405,121.508 689.425,122.218C685.815,124.834 692.096,129.676 693.97,130.663C697.366,132.453 701.488,132.404 705.202,132.441M327.679,179.285C323.516,178.309 317.669,178.117 314.454,181.493C311.886,184.19 310.416,191.216 315.296,192.533C318.854,193.493 324.506,193.569 327.466,191C329.225,189.474 330.43,186.822 330.771,184.569C330.926,183.538 330.998,182.285 330.492,181.301C329.922,180.191 328.799,179.663 327.679,179.285M739.593,189.05C739.612,188.786 739.622,188.654 739.622,188.654C739.775,185.58 738.47,181.607 735.436,180.268C732.848,179.125 731.764,179.008 728.919,178.874C726.167,178.744 721.11,179.066 721.004,182.896C720.908,186.358 722.391,190.358 725.704,191.957C727.483,192.816 729.6,192.957 731.524,193.029C734.719,193.148 738.868,192.872 739.593,189.05M325.337,213.159C325.436,212.913 325.485,212.789 325.485,212.789C326.606,209.808 325.973,206.551 323.602,204.407C322.403,203.323 320.151,203.042 318.703,202.943C315.258,202.707 311.094,203.493 309.433,206.914C308.43,208.98 307.753,211.913 308.908,214.067C310.072,216.237 312.767,216.691 314.961,216.898C318.719,217.253 323.312,216.83 325.337,213.159M727.31,204.843C727.142,205.049 727.059,205.152 727.059,205.152C724.782,208.252 725.563,213.772 728.985,215.783C731.078,217.013 733.647,217.023 735.983,216.98C737.998,216.942 740.041,216.848 741.641,215.492C742.661,214.627 742.934,213.098 743.034,211.868C743.237,209.373 742.676,206.22 740.584,204.575C737.505,202.152 731.288,201.995 728.033,204.217C728.033,204.217 727.926,204.296 727.31,204.843M347.998,145.656C348.017,145.391 348.027,145.259 348.027,145.259C348.052,142.22 343.677,142.184 341.58,142.119C336.498,141.96 327.192,141.155 325.66,147.739C324.882,151.083 329.598,151.444 331.771,151.539C336.794,151.758 345.485,152.525 347.773,146.468C347.773,146.468 347.816,146.343 347.998,145.656M705.163,142.778C701.018,144.484 705.268,149.008 707.553,150.165C711.162,151.993 715.462,151.6 719.327,151.574C721.228,151.561 722.63,151.625 724.44,150.914C728.598,149.281 724.37,144.472 722.175,143.392C720.279,142.459 718.429,142.291 716.362,142.169C712.696,141.952 708.745,141.623 705.163,142.778M734.769,234.612C736.853,235.799 740.127,238.565 742.77,237.423C743.881,236.943 744.272,235.434 744.409,234.405C744.771,231.685 744.186,227.635 741.32,226.353C737.931,224.839 734.314,224.861 730.791,225.881C729.385,226.288 727.604,227.419 727.97,229.154C728.157,230.045 728.873,230.844 729.562,231.375C731.601,232.946 732.542,233.343 734.769,234.612M308.328,228.939C308.226,229.182 308.175,229.304 308.175,229.304C307.792,230.277 307.557,231.348 307.592,232.399C307.619,233.188 307.7,233.979 307.86,234.751C307.94,235.138 308.107,235.508 308.306,235.849C310.054,238.842 314.003,236.201 316.051,235.08C316.977,234.574 317.908,234.076 318.829,233.56C320.754,232.482 323.035,231.573 323.929,229.372C324.922,226.928 321.078,225.765 319.432,225.524C315.488,224.946 310.559,225.002 308.328,228.939M731.659,163.521C731.461,163.344 731.361,163.256 731.361,163.256C729.794,161.971 727.726,161.604 725.772,161.414C722.117,161.057 720.272,161.111 716.634,161.587C713.046,162.056 713.522,165.751 715.509,167.85C716.731,169.142 718.794,169.541 720.463,169.557C721.644,169.568 727.652,169.148 729.425,168.86C731.331,168.551 733.417,167.144 732.606,164.911C732.414,164.384 732.025,163.945 731.659,163.521M319.307,164.549C319.206,164.793 319.156,164.915 319.156,164.915C318.3,167.439 321.211,168.727 323.252,168.956C325.087,169.162 326.932,169.267 328.775,169.385C331.828,169.581 334.998,169.574 336.994,166.854C338.991,164.133 336.452,161.766 333.777,161.47C332.467,161.325 331.146,161.291 329.828,161.256C326.229,161.161 321.566,161.216 319.307,164.549M429.349,64.667C429.488,64.442 429.558,64.329 429.558,64.329C429.983,63.473 429.225,62.858 428.447,62.628C426.812,62.145 425.382,62.202 423.702,62.24C418.713,62.353 414.648,62.392 409.979,63.984C408.486,64.493 406.505,65.118 405.518,66.507C404.949,67.309 405.655,67.973 406.446,68.197C408.4,68.75 409.595,68.565 411.592,68.572C417.428,68.591 424.886,69.314 429.349,64.667M622.444,63.281C622.309,63.507 622.241,63.62 622.241,63.62C621.505,65.71 625.767,67.11 626.732,67.451C631.367,69.084 636.113,68.622 640.946,68.552C641.758,68.54 642.572,68.575 643.383,68.523C644.62,68.444 647.116,67.447 645.215,66C643.872,64.979 641.976,64.119 640.34,63.663C638.215,63.072 636.126,62.569 633.913,62.431C631.55,62.284 625.09,61.286 622.444,63.281Z" style="fill-rule:nonzero;"/><g transform="matrix(1,0,0,1,473.551,83.5856)"><path d="M91.238,13.752C91.238,13.752 92.437,14.678 92.959,15.223C94.089,16.406 94.877,18.02 95.219,19.617C96.465,25.44 95.964,31.122 98.473,36.691C99.711,39.44 106.286,49.009 101.954,51.162C99.417,52.423 95.722,49.153 93.987,47.814C90.155,44.856 86.994,41.105 84.477,36.986C82.889,34.388 81.747,31.004 79.052,29.325C74.719,26.625 64.541,33.489 64.03,38.026C63.645,41.453 68.53,45.5 70.455,47.896C77.622,56.816 83.206,66.465 89.839,75.752C93.568,80.974 98.448,88.789 90.524,93.218C82.852,97.507 70.698,92.305 68.232,84.107C66.679,78.945 73.536,78.202 73.458,74.192C73.333,67.775 65.752,65.281 62.321,61.305C59.031,57.492 59.136,49.702 52.706,48.706C46.019,47.67 44.585,56.636 42.268,60.544C40.968,62.736 38.453,63.732 36.506,65.231C35.203,66.233 31.413,69.734 32.036,71.662C33.797,77.108 40.275,76.238 36.539,84.039C33.027,91.372 18.088,94.762 12.416,88.333C9.081,84.553 11.231,79.539 13.59,75.916C19.433,66.939 25.558,57.707 32.349,49.418C34.627,46.638 41.412,41.155 39.869,37.09C38.266,32.868 31.282,29.663 27.305,31.405C24.748,32.525 23.229,36.264 21.826,38.423C19.357,42.223 16.536,45.703 12.943,48.483C11.007,49.98 1.194,57.787 0.051,51.937C-0.844,47.356 5.414,40.833 7.276,36.763C10.236,30.292 8.292,19.405 14.97,15.257C18.36,13.151 22.748,13.28 26.496,12.181C29.082,11.423 31.941,9.803 34.717,10.507C39.496,11.718 39.348,16.769 41.09,20.458C42.84,24.162 48.367,27.866 52.438,27.533C56.844,27.172 63.879,22.323 65.657,18.314C66.786,15.768 66.404,12.518 68.561,10.446C72.709,6.46 86.892,10.872 91.238,13.752Z" style="fill:rgb(57,67,32);fill-rule:nonzero;"/></g><g transform="matrix(1,0,0,1,473.551,83.5856)"><path d="M52.705,83.443C49.784,84.576 46.762,82.943 45.53,80.148C44.023,76.727 44.005,72.427 45.895,69.108C46.622,67.833 47.447,66.495 48.797,65.789C51.98,64.125 54.888,67.404 56.121,69.978C58.26,74.446 57.305,80.918 52.705,83.443Z" style="fill:rgb(57,67,32);fill-rule:nonzero;"/></g></svg>